<svg xmlns="http://www.w3.org/2000/svg" xmlns:xlink="http://www.w3.org/1999/xlink" version="1.1" x="0px" y="0px" viewBox="0 0 566.93 708.6624999999999" enable-background="new 0 0 566.93 566.93" xml:space="preserve"><g><path fill-rule="evenodd" clip-rule="evenodd" d="M486.167,165.281c-0.189-31.818-13.336-44.318-44.933-44.375   c-105.578-0.162-211.163-0.178-316.738,0c-31.502,0.066-44.592,12.634-44.791,44.538c-0.476,78.88-0.425,157.788-0.071,236.678   c0.125,29.24,13.835,42.208,43.195,42.296c52.789,0.156,105.578,0.047,158.364,0.047c53.373,0,106.742,0.072,160.112-0.032   c31.367-0.056,44.632-12.374,44.841-44.203C486.666,321.915,486.645,243.586,486.167,165.281z M437.301,417.552   c-51.632-0.772-103.277-0.284-154.923-0.284c0-0.04,0-0.087,0-0.128c-51.059,0-102.121-0.453-153.183,0.26   c-15.957,0.223-22.846-4.078-22.677-21.442c0.705-75.428,0.645-150.863-0.064-226.286c-0.145-16.76,5.661-22.086,22.181-21.993   c102.704,0.545,205.408,0.234,308.102,0.301c21.317,0.012,22.35,1.109,22.37,22.92c0.074,74.85-0.344,149.699,0.324,224.549   C459.563,412.104,453.935,417.795,437.301,417.552z"/><path fill-rule="evenodd" clip-rule="evenodd" d="M420.497,286.294c-21.283-21.365-43.026-42.303-63.773-64.181   c-9.257-9.774-15.707-10.382-25.362-0.291c-22.815,23.897-46.714,46.775-70.122,70.136c-24.428,24.381-24.448,24.469-49.604,1.384   c-5.368-4.936-10.279-10.201-17.519-2.915c-17.998,18.077-36.63,35.588-53.808,54.434c-9.925,10.919-7.509,25.754-3.556,38.125   c3.286,10.284,15.093,6.028,23.24,6.091c40.594,0.385,81.198,0.183,121.795,0.183c0-0.041,0-0.073,0-0.115   c43.499,0,87.006,0.104,130.501-0.095c7.169-0.03,17.489,1.857,17.854-8.774c0.928-26.617,0.469-53.302,0.013-79.946   C430.048,294.242,424.576,290.376,420.497,286.294z"/><path fill-rule="evenodd" clip-rule="evenodd" d="M173.827,254.509c21.453,0.131,40.503-18.445,40.597-39.627   c0.102-20.895-17.502-38.41-38.91-38.701c-22.596-0.302-39.845,16.35-40.375,39.004   C134.67,235.226,153.522,254.395,173.827,254.509z"/></g><text x="0" y="581.93" fill="#000000" font-size="5px" font-weight="bold" font-family="'Helvetica Neue', Helvetica, Arial-Unicode, Arial, Sans-serif">Created by Ricardo Cardoso</text><text x="0" y="586.93" fill="#000000" font-size="5px" font-weight="bold" font-family="'Helvetica Neue', Helvetica, Arial-Unicode, Arial, Sans-serif">from the Noun Project</text></svg>